<svg width="157" height="158" viewBox="0 0 157 158" fill="none" xmlns="http://www.w3.org/2000/svg">
<rect x="1" y="1.53052" width="155" height="155" rx="77.5" stroke="#374B5A" stroke-opacity="0.35" stroke-width="2"/>
<path d="M46.4852 42.0243C50.6902 39.6707 56.0525 39.1192 61.1784 40.4191C63.6748 41.0494 65.8069 42.6694 67.0872 44.8999L71.8733 53.2461C73.3654 55.8468 73.857 58.9026 73.2559 61.8399C72.6548 64.7773 71.0024 67.3944 68.6087 69.1999L65.6494 71.4305C64.2559 72.4793 63.6798 73.9663 63.9653 75.2219C64.8664 79.2252 66.8557 82.9329 69.6378 85.6707C70.47 86.4831 71.9275 86.7638 73.5179 86.1581L76.7973 84.9025C79.5585 83.8471 82.6073 83.8206 85.3865 84.8277C88.1657 85.8349 90.4897 87.8085 91.9337 90.3879L96.6312 98.7685C97.9262 101.083 98.1379 103.845 97.222 106.332C95.3952 111.271 91.8746 115.254 87.5464 117.248C83.1493 119.272 78.0037 119.188 73.3456 116.081C65.9694 111.167 57.0816 102.895 49.0309 89.0978C40.8767 75.1136 38.8234 63.2123 39.0548 54.3393C39.2026 48.6619 42.2062 44.4174 46.4852 42.0243ZM48.8881 46.323C46.0026 47.9381 44.0724 50.661 43.9739 54.4722C43.7671 62.4146 45.589 73.4148 53.2803 86.6112C60.9617 99.7632 69.3276 107.489 76.0784 111.989C79.2297 114.087 82.5485 114.126 85.4832 112.777C88.4918 111.389 91.1754 108.488 92.6033 104.623C92.8102 104.063 92.8931 103.465 92.8463 102.87C92.7996 102.275 92.6243 101.697 92.3325 101.176L87.635 92.7908C86.7684 91.244 85.3742 90.0605 83.7071 89.4566C82.0401 88.8527 80.2114 88.8687 78.5552 89.5015L75.2758 90.7572C72.4199 91.8503 68.7564 91.7026 66.1861 89.1815C62.6703 85.7298 60.2527 81.1455 59.1595 76.3101C58.3569 72.7402 60.1246 69.4313 62.6851 67.4962L65.6395 65.2656C67.0742 64.1835 68.0652 62.6155 68.4268 60.8553C68.7885 59.095 68.496 57.2633 67.6042 55.7032L62.823 47.357C62.5179 46.8241 62.1087 46.3581 61.6198 45.9868C61.1308 45.6154 60.5721 45.3462 59.9769 45.1954C55.9048 44.1613 51.8572 44.6685 48.8979 46.3279L48.8881 46.323ZM102.86 42.305C102.86 41.652 102.601 41.0258 102.139 40.5641C101.677 40.1024 101.051 39.843 100.398 39.843C99.7451 39.843 99.1188 40.1024 98.6571 40.5641C98.1954 41.0258 97.936 41.652 97.936 42.305V54.6199H85.626C84.9731 54.6199 84.3468 54.8793 83.8851 55.341C83.4234 55.8027 83.164 56.429 83.164 57.0819C83.164 57.7349 83.4234 58.3611 83.8851 58.8228C84.3468 59.2845 84.9731 59.5439 85.626 59.5439H97.936V71.8539C97.936 72.5069 98.1954 73.1331 98.6571 73.5948C99.1188 74.0565 99.7451 74.3159 100.398 74.3159C101.051 74.3159 101.677 74.0565 102.139 73.5948C102.601 73.1331 102.86 72.5069 102.86 71.8539V59.5439H115.17C115.823 59.5439 116.449 59.2845 116.911 58.8228C117.373 58.3611 117.632 57.7349 117.632 57.0819C117.632 56.429 117.373 55.8027 116.911 55.341C116.449 54.8793 115.823 54.6199 115.17 54.6199H102.86V42.3099V42.305Z" fill="#374B5A"/>
</svg>
