<svg width="157" height="157" viewBox="0 0 157 157" fill="none" xmlns="http://www.w3.org/2000/svg">
<g id="Icon">
<rect id="Rectangle 14" x="1" y="1.00012" width="155" height="155" rx="77.5" stroke="#374B5A" stroke-opacity="0.35" stroke-width="2"/>
<g id="bx:support">
<path id="Vector" d="M78.2428 37.2072C55.6159 37.2072 37.2074 55.6156 37.2074 78.2425V95.2435C37.2074 99.4455 40.8883 102.864 45.4145 102.864H49.518C50.6064 102.864 51.6501 102.431 52.4197 101.662C53.1892 100.892 53.6216 99.8485 53.6216 98.7602V77.6557C53.6216 76.5674 53.1892 75.5236 52.4197 74.7541C51.6501 73.9845 50.6064 73.5522 49.518 73.5522H45.792C48.0736 57.6715 61.7384 45.4142 78.2428 45.4142C94.7472 45.4142 108.412 57.6715 110.694 73.5522H106.968C105.879 73.5522 104.835 73.9845 104.066 74.7541C103.296 75.5236 102.864 76.5674 102.864 77.6557V102.864C102.864 107.39 99.1831 111.071 94.6569 111.071H86.4499V106.967H70.0357V119.278H94.6569C103.709 119.278 111.071 111.916 111.071 102.864C115.597 102.864 119.278 99.4455 119.278 95.2435V78.2425C119.278 55.6156 100.87 37.2072 78.2428 37.2072Z" fill="#374B5A"/>
</g>
</g>
</svg>
