<svg width="30" height="30" viewBox="0 0 30 30" fill="none" xmlns="http://www.w3.org/2000/svg">
<path d="M24.9375 26.25C22.25 26.25 19.6304 25.6563 17.0788 24.4688C14.5271 23.2813 12.2667 21.6979 10.2975 19.7187C8.32833 17.7396 6.745 15.4737 5.5475 12.9212C4.35 10.3687 3.75083 7.74917 3.75 5.0625V4.40625C3.75 4.17708 3.77083 3.95833 3.8125 3.75H11.125L12.2812 10.0312L8.71875 13.625C9.59375 15.125 10.6929 16.5312 12.0162 17.8437C13.3396 19.1562 14.7925 20.2917 16.375 21.25L20 17.625L26.25 18.875V26.1875C26.0417 26.2083 25.8229 26.2242 25.5938 26.235C25.3646 26.2458 25.1458 26.2508 24.9375 26.25Z" fill="white"/>
</svg>
