<svg width="157" height="158" viewBox="0 0 157 158" fill="none" xmlns="http://www.w3.org/2000/svg">
<rect x="1" y="1.71826" width="155" height="155" rx="77.5" stroke="#374B5A" stroke-opacity="0.35" stroke-width="2"/>
<g clip-path="url(#clip0_1_205)">
<path d="M115.17 36.155C116.802 36.155 118.368 36.8035 119.522 37.9578C120.677 39.112 121.325 40.6776 121.325 42.31V116.17C121.325 117.802 120.677 119.368 119.522 120.522C118.368 121.677 116.802 122.325 115.17 122.325H41.31C39.6776 122.325 38.112 121.677 36.9578 120.522C35.8035 119.368 35.155 117.802 35.155 116.17V42.31C35.155 40.6776 35.8035 39.112 36.9578 37.9578C38.112 36.8035 39.6776 36.155 41.31 36.155H115.17ZM41.31 30C38.0452 30 34.9141 31.2969 32.6055 33.6055C30.2969 35.9141 29 39.0452 29 42.31L29 116.17C29 119.435 30.2969 122.566 32.6055 124.874C34.9141 127.183 38.0452 128.48 41.31 128.48H115.17C118.435 128.48 121.566 127.183 123.874 124.874C126.183 122.566 127.48 119.435 127.48 116.17V42.31C127.48 39.0452 126.183 35.9141 123.874 33.6055C121.566 31.2969 118.435 30 115.17 30H41.31Z" fill="#374B5A"/>
<path d="M71.1863 58.596C71.4729 58.8819 71.7003 59.2215 71.8555 59.5954C72.0106 59.9693 72.0905 60.3701 72.0905 60.7749C72.0905 61.1797 72.0106 61.5805 71.8555 61.9544C71.7003 62.3283 71.4729 62.6679 71.1863 62.9538L54.8941 79.2399L71.1863 95.526C71.7642 96.1039 72.0889 96.8877 72.0889 97.7049C72.0889 98.5221 71.7642 99.3059 71.1863 99.8838C70.6085 100.462 69.8247 100.786 69.0075 100.786C68.1902 100.786 67.4065 100.462 66.8286 99.8838L48.3636 81.4188C48.077 81.1329 47.8496 80.7933 47.6945 80.4194C47.5393 80.0455 47.4595 79.6447 47.4595 79.2399C47.4595 78.8351 47.5393 78.4343 47.6945 78.0604C47.8496 77.6865 48.077 77.3469 48.3636 77.061L66.8286 58.596C67.1145 58.3094 67.4541 58.082 67.828 57.9269C68.2019 57.7718 68.6027 57.6919 69.0075 57.6919C69.4123 57.6919 69.8131 57.7718 70.187 57.9269C70.5609 58.082 70.9005 58.3094 71.1863 58.596ZM85.2936 58.596C85.007 58.8819 84.7796 59.2215 84.6245 59.5954C84.4693 59.9693 84.3895 60.3701 84.3895 60.7749C84.3895 61.1797 84.4693 61.5805 84.6245 61.9544C84.7796 62.3283 85.007 62.6679 85.2936 62.9538L101.586 79.2399L85.2936 95.526C84.7157 96.1039 84.3911 96.8877 84.3911 97.7049C84.3911 98.5221 84.7157 99.3059 85.2936 99.8838C85.8715 100.462 86.6552 100.786 87.4725 100.786C88.2897 100.786 89.0735 100.462 89.6513 99.8838L108.116 81.4188C108.403 81.1329 108.63 80.7933 108.785 80.4194C108.941 80.0455 109.02 79.6447 109.02 79.2399C109.02 78.8351 108.941 78.4343 108.785 78.0604C108.63 77.6865 108.403 77.3469 108.116 77.061L89.6513 58.596C89.3655 58.3094 89.0259 58.082 88.652 57.9269C88.2781 57.7718 87.8773 57.6919 87.4725 57.6919C87.0677 57.6919 86.6669 57.7718 86.293 57.9269C85.9191 58.082 85.5795 58.3094 85.2936 58.596Z" fill="#374B5A"/>
</g>
<defs>
<clipPath id="clip0_1_205">
<rect width="98.48" height="98.48" fill="white" transform="translate(29 30)"/>
</clipPath>
</defs>
</svg>
