<svg width="25" height="25" viewBox="0 0 25 25" fill="none" xmlns="http://www.w3.org/2000/svg">
<g clip-path="url(#clip0_1_776)">
<path d="M9.375 0.434375C9.52752 0.619707 9.62096 0.846519 9.64324 1.0855C9.66553 1.32449 9.61563 1.56467 9.5 1.775C8.59665 3.43355 8.1249 5.29265 8.12813 7.18125C8.12813 13.4641 13.25 18.5516 19.5625 18.5516C20.3859 18.5516 21.1875 18.4656 21.9578 18.3016C22.1939 18.2504 22.4399 18.27 22.665 18.3578C22.8901 18.4456 23.0843 18.5978 23.2234 18.7953C23.3703 19.0007 23.4452 19.2489 23.4364 19.5012C23.4276 19.7535 23.3357 19.9959 23.175 20.1906C21.9495 21.696 20.4035 22.9089 18.6497 23.7409C16.896 24.5729 14.9786 25.0031 13.0375 25C5.83437 25 0 19.1969 0 12.0469C0 6.66563 3.30313 2.05 8.00625 0.0937501C8.24053 -0.00526267 8.50061 -0.0255846 8.74742 0.035837C8.99424 0.0972586 9.21445 0.237107 9.375 0.434375ZM7.59062 2.04844C5.78219 3.01848 4.27037 4.46038 3.21583 6.22088C2.16129 7.98138 1.60344 9.9947 1.60156 12.0469C1.60156 18.3281 6.725 23.4156 13.0375 23.4156C14.5491 23.4182 16.0463 23.121 17.4423 22.5412C18.8383 21.9613 20.1054 21.1103 21.1703 20.0375C20.6437 20.1031 20.1078 20.1359 19.5625 20.1359C12.3594 20.1359 6.52656 14.3328 6.52656 7.18281C6.52656 5.35938 6.90469 3.62344 7.59062 2.04844Z" fill="white"/>
<path d="M16.8656 4.91875C16.888 4.85109 16.9312 4.7922 16.989 4.75047C17.0468 4.70873 17.1162 4.68627 17.1875 4.68627C17.2588 4.68627 17.3282 4.70873 17.386 4.75047C17.4438 4.7922 17.487 4.85109 17.5094 4.91875L18.1141 6.73438C18.3844 7.54375 19.0187 8.17813 19.8281 8.44844L21.6437 9.05313C21.7114 9.07553 21.7703 9.11869 21.812 9.17647C21.8538 9.23426 21.8762 9.30372 21.8762 9.375C21.8762 9.44628 21.8538 9.51574 21.812 9.57353C21.7703 9.63131 21.7114 9.67447 21.6437 9.69688L19.8281 10.3016C19.4289 10.4346 19.0662 10.6587 18.7687 10.9562C18.4712 11.2537 18.2471 11.6164 18.1141 12.0156L17.5094 13.8313C17.487 13.8989 17.4438 13.9578 17.386 13.9995C17.3282 14.0413 17.2588 14.0637 17.1875 14.0637C17.1162 14.0637 17.0468 14.0413 16.989 13.9995C16.9312 13.9578 16.888 13.8989 16.8656 13.8313L16.2609 12.0156C16.1279 11.6164 15.9038 11.2537 15.6063 10.9562C15.3088 10.6587 14.946 10.4346 14.5469 10.3016L12.7312 9.69688C12.6636 9.67447 12.6047 9.63131 12.563 9.57353C12.5212 9.51574 12.4988 9.44628 12.4988 9.375C12.4988 9.30372 12.5212 9.23426 12.563 9.17647C12.6047 9.11869 12.6636 9.07553 12.7312 9.05313L14.5469 8.44844C14.946 8.31544 15.3088 8.09131 15.6063 7.79379C15.9038 7.49627 16.1279 7.13355 16.2609 6.73438L16.8656 4.91875ZM21.6609 0.154688C21.6764 0.110198 21.7053 0.0716188 21.7436 0.0443152C21.782 0.0170116 21.8279 0.00233984 21.875 0.00233984C21.9221 0.00233984 21.968 0.0170116 22.0064 0.0443152C22.0447 0.0716188 22.0736 0.110198 22.0891 0.154688L22.4922 1.36406C22.6719 1.90469 23.0953 2.32813 23.6359 2.50781L24.8453 2.91094C24.8898 2.92636 24.9284 2.95527 24.9557 2.99363C24.983 3.03199 24.9977 3.07791 24.9977 3.125C24.9977 3.17209 24.983 3.21801 24.9557 3.25637C24.9284 3.29473 24.8898 3.32364 24.8453 3.33906L23.6359 3.74219C23.3695 3.83082 23.1274 3.98034 22.9289 4.17888C22.7303 4.37742 22.5808 4.61951 22.4922 4.88594L22.0891 6.09531C22.0736 6.1398 22.0447 6.17838 22.0064 6.20569C21.968 6.23299 21.9221 6.24766 21.875 6.24766C21.8279 6.24766 21.782 6.23299 21.7436 6.20569C21.7053 6.17838 21.6764 6.1398 21.6609 6.09531L21.2578 4.88594C21.1692 4.61951 21.0197 4.37742 20.8211 4.17888C20.6226 3.98034 20.3805 3.83082 20.1141 3.74219L18.9047 3.33906C18.8602 3.32364 18.8216 3.29473 18.7943 3.25637C18.767 3.21801 18.7523 3.17209 18.7523 3.125C18.7523 3.07791 18.767 3.03199 18.7943 2.99363C18.8216 2.95527 18.8602 2.92636 18.9047 2.91094L20.1141 2.50781C20.6547 2.32813 21.0781 1.90469 21.2578 1.36406L21.6609 0.15625V0.154688Z" fill="white"/>
</g>
<defs>
<clipPath id="clip0_1_776">
<rect width="25" height="25" fill="white"/>
</clipPath>
</defs>
</svg>
