<svg width="157" height="158" viewBox="0 0 157 158" fill="none" xmlns="http://www.w3.org/2000/svg">
<rect x="1" y="1.90613" width="155" height="155" rx="77.5" stroke="#374B5A" stroke-opacity="0.35" stroke-width="2"/>
<path fill-rule="evenodd" clip-rule="evenodd" d="M109.015 46.4134H47.4651C46.9209 46.4134 46.3991 46.6295 46.0143 47.0143C45.6295 47.3991 45.4134 47.9209 45.4134 48.4651V110.015C45.4134 110.559 45.6295 111.081 46.0143 111.466C46.3991 111.851 46.9209 112.067 47.4651 112.067H109.015C109.559 112.067 110.081 111.851 110.466 111.466C110.851 111.081 111.067 110.559 111.067 110.015V48.4651C111.067 47.9209 110.851 47.3991 110.466 47.0143C110.081 46.6295 109.559 46.4134 109.015 46.4134ZM47.4651 42.3101C45.8327 42.3101 44.2671 42.9585 43.1128 44.1128C41.9585 45.2671 41.3101 46.8327 41.3101 48.4651V110.015C41.3101 111.647 41.9585 113.213 43.1128 114.367C44.2671 115.522 45.8327 116.17 47.4651 116.17H109.015C110.647 116.17 112.213 115.522 113.367 114.367C114.522 113.213 115.17 111.647 115.17 110.015V48.4651C115.17 46.8327 114.522 45.2671 113.367 44.1128C112.213 42.9585 110.647 42.3101 109.015 42.3101H47.4651Z" fill="#374B5A"/>
<path fill-rule="evenodd" clip-rule="evenodd" d="M71.0367 63.5037C67.6658 64.0864 65.21 66.9423 64.8079 70.3399L61.8268 95.6534H94.6535L91.6662 70.305C91.2682 66.9239 88.8349 64.0741 85.4825 63.4873C80.4559 62.6072 76.2664 62.599 71.0367 63.5037ZM73.5828 72.3628C73.6367 71.8298 73.4799 71.2969 73.146 70.8779C72.8121 70.459 72.3276 70.1872 71.796 70.1208C71.2644 70.0543 70.7279 70.1984 70.3012 70.5223C69.8745 70.8462 69.5913 71.3242 69.5123 71.854L67.6556 86.704C67.6152 86.9745 67.6294 87.2504 67.6972 87.5153C67.765 87.7803 67.8852 88.029 68.0505 88.2469C68.2159 88.4648 68.4231 88.6474 68.6601 88.784C68.897 88.9206 69.1589 89.0085 69.4303 89.0424C69.7017 89.0763 69.9772 89.0556 70.2405 88.9816C70.5038 88.9075 70.7496 88.7815 70.9635 88.611C71.1774 88.4406 71.355 88.2291 71.486 87.9889C71.617 87.7488 71.6986 87.4849 71.7261 87.2128L73.5828 72.3628Z" fill="#374B5A"/>
<path fill-rule="evenodd" clip-rule="evenodd" d="M75.1092 67.088C76.0164 67.7321 76.732 68.61 77.18 69.6285C77.628 70.6469 77.7915 71.7677 77.6532 72.8716L75.7985 87.7216C75.6057 89.2604 74.863 90.5939 73.7879 91.55H90.0371L87.5915 70.7851C87.3823 69.0002 86.1472 67.7692 84.7766 67.5291C81.3483 66.93 78.396 66.7761 75.1092 67.088ZM91.6661 70.305C91.2681 66.9239 88.8348 64.0741 85.4824 63.4873C80.4558 62.6072 76.2663 62.599 71.0366 63.5037C67.6657 64.0864 65.2099 66.9423 64.8078 70.3399L61.8267 95.6534H94.6534L91.6661 70.305ZM73.5827 72.3628L71.726 87.2128C71.6985 87.4849 71.6169 87.7488 71.4859 87.9889C71.3549 88.2291 71.1773 88.4406 70.9634 88.611C70.7495 88.7815 70.5037 88.9075 70.2404 88.9816C69.9771 89.0556 69.7016 89.0763 69.4302 89.0424C69.1588 89.0085 68.8969 88.9206 68.66 88.784C68.423 88.6474 68.2158 88.4648 68.0504 88.2469C67.8851 88.029 67.765 87.7803 67.6971 87.5153C67.6293 87.2504 67.6151 86.9745 67.6555 86.704L69.5122 71.854C69.5397 71.5819 69.6214 71.318 69.7523 71.0779C69.8833 70.8378 70.0609 70.6262 70.2748 70.4558C70.4887 70.2853 70.7346 70.1593 70.9978 70.0853C71.2611 70.0112 71.5366 69.9905 71.808 70.0244C72.0794 70.0584 72.3413 70.1462 72.5782 70.2828C72.8152 70.4194 73.0224 70.602 73.1878 70.8199C73.3531 71.0378 73.4733 71.2865 73.5411 71.5515C73.6089 71.8165 73.6231 72.0923 73.5827 72.3628ZM96.705 103.86H59.775V99.7567H96.705V103.86Z" fill="#374B5A"/>
<path d="M55.6717 79.2401C55.6717 79.9315 55.7025 80.6147 55.764 81.2917H49.5167V77.1884H55.764C55.7025 77.8654 55.6717 78.5486 55.6717 79.2401ZM59.7997 66.2243C59.0084 67.3438 58.321 68.5333 57.746 69.7778L52.3398 66.6551L54.3915 63.1016L59.7997 66.2243ZM68.7757 58.7439C67.5263 59.3245 66.3383 60.0139 65.2263 60.7997L62.1016 55.3915L65.6551 53.3398L68.7757 58.746V58.7439ZM78.2401 56.6717C77.5486 56.6717 76.8654 56.7025 76.1884 56.764V50.5167H80.2917V56.764C79.6096 56.7026 78.925 56.6718 78.2401 56.6717ZM91.2558 60.7997C90.1362 60.0085 88.9468 59.3211 87.7023 58.746L90.825 53.3398L94.3785 55.3915L91.2558 60.7997ZM98.7362 69.7757C98.1603 68.5325 97.4722 67.3445 96.6804 66.2263L102.089 63.1016L104.14 66.6551L98.7342 69.7757H98.7362ZM100.808 79.2401C100.808 78.5486 100.778 77.8654 100.716 77.1884H106.963V81.2917H100.716C100.778 80.6147 100.808 79.9315 100.808 79.2401Z" fill="#374B5A"/>
</svg>
