<svg width="157" height="158" viewBox="0 0 157 158" fill="none" xmlns="http://www.w3.org/2000/svg">
<rect x="1" y="1.34277" width="155" height="155" rx="77.5" stroke="#374B5A" stroke-opacity="0.35" stroke-width="2"/>
<g clip-path="url(#clip0_1_177)">
<path d="M70.5804 106.048C70.5804 110.152 73.8631 113.708 78.24 113.708C82.6169 113.708 85.8996 110.425 85.8996 106.048C85.8996 101.672 82.3433 98.3889 78.24 98.3889C74.1367 98.3889 70.5804 101.672 70.5804 106.048ZM81.5227 106.048C81.5227 107.963 79.8813 109.331 78.24 109.331C76.5987 109.331 74.9573 107.69 74.9573 106.048C74.9573 104.407 76.5987 102.766 78.24 102.766C79.8813 102.766 81.5227 104.134 81.5227 106.048Z" fill="#374B5A"/>
<path d="M64.5622 87.4468H91.9178V91.8237H64.5622V87.4468Z" fill="#374B5A"/>
<path d="M94.6533 58.7232C94.3798 58.1761 94.1062 57.9026 93.8327 57.3555H61.8267V61.7324H94.6533V58.7232Z" fill="#374B5A"/>
<path d="M61.8267 46.4133V50.7902H91.0971C90.8236 49.4224 90.55 47.7811 90.55 46.4133H61.8267Z" fill="#374B5A"/>
<path d="M100.124 63.6474V117.538H56.3556V40.9423H91.3707C91.9178 39.0274 92.7385 37.1125 93.8327 35.4712H54.9878C52.7993 35.4712 50.8845 37.3861 50.8845 39.5745V123.009H105.596V66.1094C103.681 65.5623 101.766 64.7416 100.124 63.6474Z" fill="#374B5A"/>
<path d="M111.067 60.0912C118.621 60.0912 124.744 53.9674 124.744 46.4134C124.744 38.8593 118.621 32.7356 111.067 32.7356C103.513 32.7356 97.3889 38.8593 97.3889 46.4134C97.3889 53.9674 103.513 60.0912 111.067 60.0912Z" fill="#374B5A"/>
</g>
<defs>
<clipPath id="clip0_1_177">
<rect width="98.48" height="98.48" fill="white" transform="translate(29 30)"/>
</clipPath>
</defs>
</svg>
