<svg width="100" height="100" viewBox="0 0 100 100" fill="none" xmlns="http://www.w3.org/2000/svg">
<g id="Group 6">
<g id="Ellipse 2">
<circle cx="50" cy="50" r="50" fill="white"/>
<circle cx="50" cy="50" r="48.75" stroke="#374B5A" stroke-opacity="0.35" stroke-width="2.5"/>
</g>
<g id="bx:support">
<path id="Vector" d="M50 29.1667C38.5125 29.1667 29.1667 38.5125 29.1667 50V58.6313C29.1667 60.7646 31.0354 62.5 33.3333 62.5H35.4167C35.9692 62.5 36.4991 62.2805 36.8898 61.8898C37.2805 61.4991 37.5 60.9692 37.5 60.4167V49.7021C37.5 49.1496 37.2805 48.6197 36.8898 48.229C36.4991 47.8383 35.9692 47.6188 35.4167 47.6188H33.525C34.6833 39.5563 41.6208 33.3334 50 33.3334C58.3792 33.3334 65.3167 39.5563 66.475 47.6188H64.5833C64.0308 47.6188 63.5009 47.8383 63.1102 48.229C62.7195 48.6197 62.5 49.1496 62.5 49.7021V62.5C62.5 64.7979 60.6313 66.6667 58.3333 66.6667H54.1667V64.5834H45.8333V70.8334H58.3333C62.9292 70.8334 66.6667 67.0959 66.6667 62.5C68.9646 62.5 70.8333 60.7646 70.8333 58.6313V50C70.8333 38.5125 61.4875 29.1667 50 29.1667Z" fill="#374B5A"/>
</g>
</g>
</svg>
