<svg width="25" height="25" viewBox="0 0 25 25" fill="none" xmlns="http://www.w3.org/2000/svg">
<path d="M13.5396 22.9167H11.4563V19.7917H13.5396V22.9167ZM19.1271 20.6021L16.9178 18.3927L18.3907 16.9198L20.6011 19.1302L19.1292 20.6021H19.1271ZM5.8688 20.6021L4.39588 19.1292L6.60422 16.9188L8.07817 18.3917L5.86984 20.601V20.6021H5.8688ZM12.498 17.7156C11.1147 17.7151 9.7883 17.165 8.81057 16.1865C7.83284 15.208 7.28387 13.8812 7.28442 12.4979C7.28498 11.1146 7.83501 9.78825 8.81352 8.81052C9.79203 7.8328 11.1189 7.28382 12.5021 7.28438C13.1871 7.28465 13.8652 7.41983 14.4979 7.68219C15.1306 7.94455 15.7054 8.32896 16.1895 8.81347C16.6736 9.29798 17.0576 9.8731 17.3195 10.506C17.5813 11.1389 17.7159 11.8172 17.7157 12.5021C17.7154 13.187 17.5802 13.8652 17.3179 14.4979C17.0555 15.1305 16.6711 15.7054 16.1866 16.1895C15.7021 16.6736 15.127 17.0576 14.4941 17.3194C13.8612 17.5813 13.1829 17.7159 12.498 17.7156ZM12.498 9.36771C12.0866 9.36798 11.6794 9.44927 11.2994 9.60694C10.9195 9.7646 10.5744 9.99556 10.2837 10.2866C9.99304 10.5777 9.76255 10.9231 9.60539 11.3033C9.44823 11.6834 9.36748 12.0907 9.36776 12.5021C9.36803 12.9134 9.44932 13.3207 9.60699 13.7006C9.76465 14.0805 9.9956 14.4257 10.2867 14.7163C10.5777 15.007 10.9232 15.2375 11.3033 15.3947C11.6834 15.5518 12.0908 15.6326 12.5021 15.6323C13.3329 15.6317 14.1294 15.3012 14.7164 14.7134C15.3034 14.1256 15.6329 13.3287 15.6323 12.4979C15.6318 11.6672 15.3013 10.8707 14.7134 10.2837C14.1256 9.69664 13.3287 9.36716 12.498 9.36771ZM22.9146 13.5417H19.7896V11.4583H22.9146V13.5417ZM5.2063 13.5417H2.0813V11.4583H5.2063V13.5417ZM18.3896 8.08125L16.9178 6.60729L19.1271 4.39688L20.6011 5.87083L18.3907 8.08021L18.3896 8.08125ZM6.60526 8.08125L4.39692 5.87188L5.87088 4.39896L8.07922 6.60938L6.6063 8.08021V8.08125H6.60526ZM13.5396 5.20833H11.4563V2.08333H13.5396V5.20833Z" fill="white"/>
</svg>
