<svg width="100" height="101" viewBox="0 0 100 101" fill="none" xmlns="http://www.w3.org/2000/svg">
<g id="Group 6">
<g id="Ellipse 2">
<circle cx="50" cy="50.5" r="50" fill="white"/>
<circle cx="50" cy="50.5" r="48.75" stroke="#374B5A" stroke-opacity="0.35" stroke-width="2.5"/>
</g>
<g id="bi:boxes">
<path id="Vector" d="M49.225 26.2059C49.461 26.0711 49.7282 26.0002 50 26.0002C50.2718 26.0002 50.539 26.0711 50.775 26.2059L62.4938 32.9028C62.7329 33.0394 62.9317 33.2368 63.07 33.475C63.2083 33.7131 63.2812 33.9836 63.2812 34.2591V46.7434L74.2125 52.9934C74.4507 53.1295 74.6489 53.3259 74.7872 53.5629C74.9254 53.7999 74.9988 54.0691 75 54.3434V67.7372C74.9999 68.0126 74.927 68.2831 74.7887 68.5213C74.6504 68.7594 74.4516 68.9568 74.2125 69.0934L62.4938 75.7903C62.2577 75.9251 61.9906 75.996 61.7188 75.996C61.4469 75.996 61.1798 75.9251 60.9437 75.7903L50 69.5403L39.0563 75.7934C38.8202 75.9283 38.5531 75.9992 38.2812 75.9992C38.0094 75.9992 37.7423 75.9283 37.5062 75.7934L25.7875 69.0966C25.5484 68.9599 25.3496 68.7626 25.2113 68.5244C25.073 68.2862 25.0001 68.0157 25 67.7403V54.3466C25.0001 54.0711 25.073 53.8006 25.2113 53.5625C25.3496 53.3243 25.5484 53.1269 25.7875 52.9903L36.7188 46.7434V34.2591C36.7188 33.9836 36.7917 33.7131 36.93 33.475C37.0683 33.2368 37.2671 33.0394 37.5062 32.9028L49.225 26.2059ZM38.2812 49.4497L29.7125 54.3466L38.2812 59.2434L46.85 54.3466L38.2812 49.4497ZM48.4375 57.0403L39.8438 61.9497V71.7434L48.4375 66.8341V57.0403ZM51.5625 66.8341L60.1562 71.7434V61.9497L51.5625 57.0403V66.8341ZM53.15 54.3466L61.7188 59.2434L70.2875 54.3466L61.7188 49.4497L53.15 54.3466ZM60.1562 46.7434V36.9497L51.5625 41.8622V51.6559L60.1562 46.7434ZM48.4375 51.6559V41.8622L39.8438 36.9497V46.7434L48.4375 51.6559ZM41.4312 34.2591L50 39.1559L58.5687 34.2591L50 29.3622L41.4312 34.2591ZM71.875 57.0403L63.2812 61.9497V71.7434L71.875 66.8341V57.0403ZM36.7188 71.7434V61.9497L28.125 57.0403V66.8341L36.7188 71.7434Z" fill="#374B5A"/>
</g>
</g>
</svg>
