<svg width="157" height="158" viewBox="0 0 157 158" fill="none" xmlns="http://www.w3.org/2000/svg">
<rect x="1" y="1.90613" width="155" height="155" rx="77.5" stroke="#374B5A" stroke-opacity="0.35" stroke-width="2"/>
<path d="M41.31 91.5501V97.7051H55.4234L35.155 117.973L39.5066 122.325L59.775 102.057V116.17H65.93V91.5501H41.31ZM121.325 122.325H96.705V97.7051H121.325V122.325ZM102.86 116.17H115.17V103.86H102.86V116.17ZM90.55 91.5501H65.93V66.9301H90.55V91.5501ZM72.085 85.3951H84.395V73.0851H72.085V85.3951Z" fill="#374B5A"/>
<path d="M102.86 82.3175H96.705V76.1625H102.86C106.125 76.1625 109.256 74.8656 111.564 72.557C113.873 70.2484 115.17 67.1173 115.17 63.8525C115.17 60.5877 113.873 57.4566 111.564 55.148C109.256 52.8395 106.125 51.5425 102.86 51.5425H65.93V45.3875H102.86C107.757 45.3875 112.454 47.3329 115.917 50.7958C119.38 54.2587 121.325 58.9553 121.325 63.8525C121.325 68.7498 119.38 73.4464 115.917 76.9093C112.454 80.3721 107.757 82.3175 102.86 82.3175ZM59.775 60.775H35.155V36.155H59.775V60.775ZM41.31 54.62H53.62V42.31H41.31V54.62Z" fill="#374B5A"/>
</svg>
