<svg width="30" height="30" viewBox="0 0 30 30" fill="none" xmlns="http://www.w3.org/2000/svg">
<g clip-path="url(#clip0_1_341)">
<path d="M25.8333 6.6665H19.1667V8.33317H25.8333V25.8332H19.1667V27.4998H27.5V8.33317C27.5 7.89114 27.3244 7.46722 27.0118 7.15466C26.6993 6.8421 26.2754 6.6665 25.8333 6.6665Z" fill="white"/>
<path d="M16.5667 2.5H5.10001C4.63146 2.5 4.1821 2.68613 3.85079 3.01744C3.51947 3.34876 3.33334 3.79812 3.33334 4.26667V27.5H18.3333V4.26667C18.3333 3.79812 18.1472 3.34876 17.8159 3.01744C17.4846 2.68613 17.0352 2.5 16.5667 2.5ZM16.6667 25.8333H14.1667V23.3333H7.50001V25.8333H5.00001V4.26667C5.00001 4.25353 5.0026 4.24053 5.00762 4.2284C5.01265 4.21627 5.02001 4.20524 5.0293 4.19596C5.03859 4.18667 5.04961 4.1793 5.06174 4.17428C5.07387 4.16925 5.08688 4.16667 5.10001 4.16667H16.5667C16.5798 4.16667 16.5928 4.16925 16.6049 4.17428C16.6171 4.1793 16.6281 4.18667 16.6374 4.19596C16.6467 4.20524 16.654 4.21627 16.6591 4.2284C16.6641 4.24053 16.6667 4.25353 16.6667 4.26667V25.8333Z" fill="white"/>
<path d="M6.66666 6.6665H8.33332V8.33317H6.66666V6.6665Z" fill="white"/>
<path d="M10 6.6665H11.6667V8.33317H10V6.6665Z" fill="white"/>
<path d="M13.3333 6.6665H15V8.33317H13.3333V6.6665Z" fill="white"/>
<path d="M6.66666 10.8335H8.33332V12.5002H6.66666V10.8335Z" fill="white"/>
<path d="M10 10.8335H11.6667V12.5002H10V10.8335Z" fill="white"/>
<path d="M13.3333 10.8335H15V12.5002H13.3333V10.8335Z" fill="white"/>
<path d="M6.66666 15H8.33332V16.6667H6.66666V15Z" fill="white"/>
<path d="M10 15H11.6667V16.6667H10V15Z" fill="white"/>
<path d="M13.3333 15H15V16.6667H13.3333V15Z" fill="white"/>
<path d="M6.66666 19.1665H8.33332V20.8332H6.66666V19.1665Z" fill="white"/>
<path d="M10 19.1665H11.6667V20.8332H10V19.1665Z" fill="white"/>
<path d="M13.3333 19.1665H15V20.8332H13.3333V19.1665Z" fill="white"/>
<path d="M19.1667 10.8335H20.8333V12.5002H19.1667V10.8335Z" fill="white"/>
<path d="M22.5 10.8335H24.1667V12.5002H22.5V10.8335Z" fill="white"/>
<path d="M19.1667 15H20.8333V16.6667H19.1667V15Z" fill="white"/>
<path d="M22.5 15H24.1667V16.6667H22.5V15Z" fill="white"/>
<path d="M19.1667 19.1665H20.8333V20.8332H19.1667V19.1665Z" fill="white"/>
<path d="M22.5 19.1665H24.1667V20.8332H22.5V19.1665Z" fill="white"/>
</g>
<defs>
<clipPath id="clip0_1_341">
<rect width="30" height="30" fill="white"/>
</clipPath>
</defs>
</svg>
