<svg width="157" height="158" viewBox="0 0 157 158" fill="none" xmlns="http://www.w3.org/2000/svg">
<rect x="1" y="1.43677" width="155" height="155" rx="77.5" stroke="#374B5A" stroke-opacity="0.35" stroke-width="2"/>
<path d="M76.1883 38.2065C56.9437 38.2065 41.31 53.8402 41.31 73.0849C41.31 92.3295 56.9437 107.963 76.1883 107.963H78.24V120.273C98.1822 110.671 111.067 91.5499 111.067 73.0849C111.067 53.8402 95.433 38.2065 76.1883 38.2065ZM80.2917 97.7049H72.085V89.4982H80.2917V97.7049ZM80.2917 83.3432H72.085C72.085 70.0074 84.395 71.0332 84.395 62.8265C84.395 58.3129 80.702 54.6199 76.1883 54.6199C71.6747 54.6199 67.9817 58.3129 67.9817 62.8265H59.775C59.775 53.7582 67.12 46.4132 76.1883 46.4132C85.2567 46.4132 92.6017 53.7582 92.6017 62.8265C92.6017 73.0849 80.2917 74.1107 80.2917 83.3432Z" fill="#374B5A"/>
</svg>
