<svg width="157" height="158" viewBox="0 0 157 158" fill="none" xmlns="http://www.w3.org/2000/svg">
<rect x="1" y="1.71826" width="155" height="155" rx="77.5" stroke="#374B5A" stroke-opacity="0.35" stroke-width="2"/>
<path d="M78.24 42.3101H47.465C45.8326 42.3101 44.267 42.9585 43.1128 44.1128C41.9585 45.2671 41.31 46.8327 41.31 48.4651V93.6017C41.31 95.2341 41.9585 96.7997 43.1128 97.954C44.267 99.1083 45.8326 99.7567 47.465 99.7567H109.015C110.647 99.7567 112.213 99.1083 113.367 97.954C114.522 96.7997 115.17 95.2341 115.17 93.6017V83.3434M78.24 99.7567V116.17M57.7233 116.17H98.7567" stroke="#374B5A" stroke-width="8.20667" stroke-linecap="round" stroke-linejoin="round"/>
<path d="M104.912 62.8268C108.311 62.8268 111.067 60.0712 111.067 56.6718C111.067 53.2725 108.311 50.5168 104.912 50.5168C101.512 50.5168 98.7567 53.2725 98.7567 56.6718C98.7567 60.0712 101.512 62.8268 104.912 62.8268Z" stroke="#374B5A" stroke-width="8.20667"/>
<path d="M104.912 71.0334V62.8267M104.912 50.5167V42.3101M92.4745 63.8526L99.5815 59.7492M110.242 53.5942L117.349 49.4909M92.4745 49.4909L99.5815 53.5942M110.242 59.7492L117.349 63.8526" stroke="#374B5A" stroke-width="8.20667" stroke-linecap="round" stroke-linejoin="round"/>
</svg>
