<svg width="100" height="100" viewBox="0 0 100 100" fill="none" xmlns="http://www.w3.org/2000/svg">
<circle cx="50" cy="50" r="50" fill="white"/>
<circle cx="50" cy="50" r="48.75" stroke="#374B5A" stroke-opacity="0.35" stroke-width="2.5"/>
<path d="M44.6429 48.6607C44.6429 48.3055 44.784 47.9649 45.0352 47.7137C45.2863 47.4626 45.627 47.3215 45.9822 47.3215H54.0179C54.3731 47.3215 54.7137 47.4626 54.9649 47.7137C55.2161 47.9649 55.3572 48.3055 55.3572 48.6607C55.3572 49.016 55.2161 49.3566 54.9649 49.6078C54.7137 49.8589 54.3731 50 54.0179 50H45.9822C45.627 50 45.2863 49.8589 45.0352 49.6078C44.784 49.3566 44.6429 49.016 44.6429 48.6607ZM34.375 30.3572C33.3094 30.3572 32.2875 30.7805 31.534 31.534C30.7805 32.2875 30.3572 33.3094 30.3572 34.375V37.9465C30.3572 39.3393 31.0661 40.5661 32.1429 41.2875V61.1608C32.1429 63.4104 33.0365 65.5678 34.6273 67.1585C36.218 68.7492 38.3754 69.6429 40.625 69.6429H50.8929C50.2693 68.8138 49.7443 67.9149 49.3286 66.9643H40.625C39.0858 66.9643 37.6097 66.3529 36.5213 65.2645C35.4329 64.1761 34.8215 62.7 34.8215 61.1608V41.9643H65.1786V48.6965C66.1073 48.9526 67.0054 49.3089 67.8572 49.759V41.2875C68.934 40.5661 69.6429 39.3411 69.6429 37.9465V34.375C69.6429 33.3094 69.2196 32.2875 68.4661 31.534C67.7126 30.7805 66.6906 30.3572 65.625 30.3572H34.375ZM33.0357 34.375C33.0357 34.0198 33.1769 33.6792 33.428 33.428C33.6792 33.1769 34.0198 33.0357 34.375 33.0357H65.625C65.9802 33.0357 66.3209 33.1769 66.5721 33.428C66.8232 33.6792 66.9643 34.0198 66.9643 34.375V37.9465C66.9643 38.3017 66.8232 38.6423 66.5721 38.8935C66.3209 39.1446 65.9802 39.2857 65.625 39.2857H34.375C34.0198 39.2857 33.6792 39.1446 33.428 38.8935C33.1769 38.6423 33.0357 38.3017 33.0357 37.9465V34.375ZM52.4197 59.275C52.8861 59.1596 53.3245 58.9512 53.7085 58.6623C54.0925 58.3734 54.4142 58.01 54.6545 57.5939C54.8948 57.1777 55.0486 56.7174 55.1067 56.2404C55.1649 55.7634 55.1261 55.2796 54.9929 54.8179L54.3965 52.7482C55.3228 51.9295 56.3797 51.2716 57.5232 50.8018L59.0411 52.3983C59.3747 52.7492 59.7762 53.0286 60.2212 53.2195C60.6662 53.4105 61.1453 53.5089 61.6295 53.5089C62.1137 53.5089 62.5928 53.4105 63.0378 53.2195C63.4828 53.0286 63.8843 52.7492 64.2179 52.3983L65.7232 50.8161C66.8732 51.2893 67.9286 51.959 68.8536 52.7804L68.275 54.7411C68.1381 55.2055 68.097 55.6929 68.1543 56.1736C68.2116 56.6543 68.366 57.1184 68.6082 57.5376C68.8503 57.9568 69.1752 58.3224 69.5631 58.6122C69.9509 58.902 70.3936 59.1099 70.8643 59.2233L72.609 59.6447C72.8175 60.9168 72.8223 62.2139 72.6232 63.4875L70.7911 63.9393C70.3248 64.055 69.8867 64.2635 69.5029 64.5525C69.119 64.8414 68.7975 65.2048 68.5574 65.621C68.3173 66.0371 68.1637 66.4974 68.1057 66.9743C68.0476 67.4512 68.0864 67.9349 68.2197 68.3965L68.8161 70.4679C67.8897 71.2866 66.8329 71.9445 65.6893 72.4143L64.1715 70.8179C63.8378 70.4667 63.4362 70.187 62.9911 69.9959C62.546 69.8048 62.0666 69.7063 61.5822 69.7063C61.0978 69.7063 60.6184 69.8048 60.1733 69.9959C59.7281 70.187 59.3265 70.4667 58.9929 70.8179L57.4893 72.3983C56.3433 71.9233 55.2851 71.2593 54.359 70.434L54.9375 68.4733C55.0745 68.0089 55.1155 67.5215 55.0583 67.0408C55.001 66.56 54.8466 66.0959 54.6044 65.6767C54.3622 65.2575 54.0373 64.8919 53.6495 64.6021C53.2616 64.3124 52.8189 64.1045 52.3482 63.9911L50.6054 63.5715C50.3966 62.2994 50.3917 61.0022 50.5911 59.7286L52.4197 59.275ZM64.2857 61.6072C64.2857 60.8968 64.0035 60.2155 63.5012 59.7131C62.9989 59.2108 62.3176 58.9286 61.6072 58.9286C60.8968 58.9286 60.2155 59.2108 59.7131 59.7131C59.2108 60.2155 58.9286 60.8968 58.9286 61.6072C58.9286 62.3176 59.2108 62.9989 59.7131 63.5012C60.2155 64.0035 60.8968 64.2858 61.6072 64.2858C62.3176 64.2858 62.9989 64.0035 63.5012 63.5012C64.0035 62.9989 64.2857 62.3176 64.2857 61.6072Z" fill="#374B5A"/>
</svg>
