<svg width="100" height="101" viewBox="0 0 100 101" fill="none" xmlns="http://www.w3.org/2000/svg">
<g id="Group 6">
<g id="Ellipse 2">
<circle cx="50" cy="50.5" r="50" fill="white"/>
<circle cx="50" cy="50.5" r="48.75" stroke="#374B5A" stroke-opacity="0.35" stroke-width="2.5"/>
</g>
<g id="healthicons:i-schedule-school-date-time">
<g id="Group">
<path id="Vector" fill-rule="evenodd" clip-rule="evenodd" d="M61.4583 67.1666C62.8397 67.1666 64.1644 66.6179 65.1412 65.6411C66.1179 64.6644 66.6667 63.3396 66.6667 61.9583C66.6667 60.577 66.1179 59.2522 65.1412 58.2754C64.1644 57.2987 62.8397 56.75 61.4583 56.75C60.077 56.75 58.7522 57.2987 57.7755 58.2754C56.7987 59.2522 56.25 60.577 56.25 61.9583C56.25 63.3396 56.7987 64.6644 57.7755 65.6411C58.7522 66.6179 60.077 67.1666 61.4583 67.1666ZM61.4583 69.25C63.3922 69.25 65.2469 68.4817 66.6143 67.1143C67.9818 65.7468 68.75 63.8922 68.75 61.9583C68.75 60.0244 67.9818 58.1698 66.6143 56.8023C65.2469 55.4349 63.3922 54.6666 61.4583 54.6666C59.5245 54.6666 57.6698 55.4349 56.3023 56.8023C54.9349 58.1698 54.1667 60.0244 54.1667 61.9583C54.1667 63.8922 54.9349 65.7468 56.3023 67.1143C57.6698 68.4817 59.5245 69.25 61.4583 69.25Z" fill="#374B5A"/>
<path id="Vector_2" fill-rule="evenodd" clip-rule="evenodd" d="M61.4583 58.3125C61.7346 58.3125 61.9995 58.4222 62.1949 58.6176C62.3902 58.8129 62.5 59.0779 62.5 59.3542V61.5271L63.2365 62.2635C63.4262 62.46 63.5312 62.7231 63.5288 62.9963C63.5264 63.2694 63.4169 63.5306 63.2238 63.7238C63.0306 63.9169 62.7694 64.0265 62.4962 64.0288C62.2231 64.0312 61.96 63.9262 61.7635 63.7365L60.4167 62.3896V59.3542C60.4167 59.0779 60.5264 58.8129 60.7218 58.6176C60.9171 58.4222 61.1821 58.3125 61.4583 58.3125ZM39.5833 49.4583H37.5V51.5417H39.5833V49.4583ZM37.5 47.375C36.9475 47.375 36.4176 47.5945 36.0269 47.9852C35.6362 48.3759 35.4167 48.9058 35.4167 49.4583V51.5417C35.4167 52.0942 35.6362 52.6241 36.0269 53.0148C36.4176 53.4055 36.9475 53.625 37.5 53.625H39.5833C40.1359 53.625 40.6658 53.4055 41.0565 53.0148C41.4472 52.6241 41.6667 52.0942 41.6667 51.5417V49.4583C41.6667 48.9058 41.4472 48.3759 41.0565 47.9852C40.6658 47.5945 40.1359 47.375 39.5833 47.375H37.5ZM47.9167 49.4583H45.8333V51.5417H47.9167V49.4583ZM45.8333 47.375C45.2808 47.375 44.7509 47.5945 44.3602 47.9852C43.9695 48.3759 43.75 48.9058 43.75 49.4583V51.5417C43.75 52.0942 43.9695 52.6241 44.3602 53.0148C44.7509 53.4055 45.2808 53.625 45.8333 53.625H47.9167C48.4692 53.625 48.9991 53.4055 49.3898 53.0148C49.7805 52.6241 50 52.0942 50 51.5417V49.4583C50 48.9058 49.7805 48.3759 49.3898 47.9852C48.9991 47.5945 48.4692 47.375 47.9167 47.375H45.8333ZM56.25 49.4583H54.1667V51.5417H56.25V49.4583ZM54.1667 47.375C53.6141 47.375 53.0842 47.5945 52.6935 47.9852C52.3028 48.3759 52.0833 48.9058 52.0833 49.4583V51.5417C52.0833 52.0942 52.3028 52.6241 52.6935 53.0148C53.0842 53.4055 53.6141 53.625 54.1667 53.625H56.25C56.8025 53.625 57.3324 53.4055 57.7231 53.0148C58.1138 52.6241 58.3333 52.0942 58.3333 51.5417V49.4583C58.3333 48.9058 58.1138 48.3759 57.7231 47.9852C57.3324 47.5945 56.8025 47.375 56.25 47.375H54.1667ZM39.5833 57.7917H37.5V59.875H39.5833V57.7917ZM37.5 55.7083C36.9475 55.7083 36.4176 55.9278 36.0269 56.3185C35.6362 56.7092 35.4167 57.2391 35.4167 57.7917V59.875C35.4167 60.4275 35.6362 60.9574 36.0269 61.3481C36.4176 61.7388 36.9475 61.9583 37.5 61.9583H39.5833C40.1359 61.9583 40.6658 61.7388 41.0565 61.3481C41.4472 60.9574 41.6667 60.4275 41.6667 59.875V57.7917C41.6667 57.2391 41.4472 56.7092 41.0565 56.3185C40.6658 55.9278 40.1359 55.7083 39.5833 55.7083H37.5ZM47.9167 57.7917H45.8333V59.875H47.9167V57.7917ZM45.8333 55.7083C45.2808 55.7083 44.7509 55.9278 44.3602 56.3185C43.9695 56.7092 43.75 57.2391 43.75 57.7917V59.875C43.75 60.4275 43.9695 60.9574 44.3602 61.3481C44.7509 61.7388 45.2808 61.9583 45.8333 61.9583H47.9167C48.4692 61.9583 48.9991 61.7388 49.3898 61.3481C49.7805 60.9574 50 60.4275 50 59.875V57.7917C50 57.2391 49.7805 56.7092 49.3898 56.3185C48.9991 55.9278 48.4692 55.7083 47.9167 55.7083H45.8333Z" fill="#374B5A"/>
<path id="Vector_3" fill-rule="evenodd" clip-rule="evenodd" d="M33.3333 38C33.3333 37.7237 33.4431 37.4588 33.6384 37.2634C33.8338 37.0681 34.0987 36.9583 34.375 36.9583H39.5833V34.875H34.375C33.5462 34.875 32.7513 35.2042 32.1653 35.7903C31.5792 36.3763 31.25 37.1712 31.25 38V63C31.25 63.8288 31.5792 64.6237 32.1653 65.2097C32.7513 65.7958 33.5462 66.125 34.375 66.125H55.474C55.0297 65.4887 54.6904 64.7854 54.4688 64.0417H34.375C34.0987 64.0417 33.8338 63.9319 33.6384 63.7366C33.4431 63.5412 33.3333 63.2763 33.3333 63V38ZM60.4167 54.7396C61.1076 54.6407 61.8091 54.6407 62.5 54.7396V38C62.5 37.1712 62.1708 36.3763 61.5847 35.7903C60.9987 35.2042 60.2038 34.875 59.375 34.875H56.25V36.9583H59.375C59.6513 36.9583 59.9162 37.0681 60.1116 37.2634C60.3069 37.4588 60.4167 37.7237 60.4167 38V54.7396ZM41.6667 36.9583H52.6698V34.875H41.6667V36.9583Z" fill="#374B5A"/>
<path id="Vector_4" fill-rule="evenodd" clip-rule="evenodd" d="M54.1667 34.875H41.6667V38C41.6667 38.2763 41.5569 38.5412 41.3616 38.7366C41.1662 38.9319 40.9013 39.0417 40.625 39.0417C40.3487 39.0417 40.0838 38.9319 39.8884 38.7366C39.6931 38.5412 39.5833 38.2763 39.5833 38V34.875H34.375C33.8225 34.875 33.2926 35.0945 32.9019 35.4852C32.5112 35.8759 32.2917 36.4058 32.2917 36.9583V42.1667C32.2917 42.7192 32.5112 43.2491 32.9019 43.6398C33.2926 44.0305 33.8225 44.25 34.375 44.25H59.375C59.9275 44.25 60.4574 44.0305 60.8481 43.6398C61.2388 43.2491 61.4583 42.7192 61.4583 42.1667V36.9583C61.4583 36.4058 61.2388 35.8759 60.8481 35.4852C60.4574 35.0945 59.9275 34.875 59.375 34.875H56.25V38C56.25 38.2763 56.1403 38.5412 55.9449 38.7366C55.7496 38.9319 55.4846 39.0417 55.2083 39.0417C54.9321 39.0417 54.6671 38.9319 54.4718 38.7366C54.2764 38.5412 54.1667 38.2763 54.1667 38V34.875Z" fill="#374B5A"/>
<path id="Vector_5" fill-rule="evenodd" clip-rule="evenodd" d="M62.5 44.25H33.3333V42.1666H62.5V44.25Z" fill="#374B5A"/>
<path id="Vector_6" d="M37.5 32.7917C37.5 32.5154 37.6097 32.2504 37.8051 32.0551C38.0004 31.8597 38.2654 31.75 38.5417 31.75C38.8179 31.75 39.0829 31.8597 39.2782 32.0551C39.4736 32.2504 39.5833 32.5154 39.5833 32.7917V36.9583C39.5833 37.2346 39.4736 37.4996 39.2782 37.6949C39.0829 37.8903 38.8179 38 38.5417 38C38.2654 38 38.0004 37.8903 37.8051 37.6949C37.6097 37.4996 37.5 37.2346 37.5 36.9583V32.7917ZM52.0833 32.7917C52.0833 32.5154 52.1931 32.2504 52.3884 32.0551C52.5838 31.8597 52.8487 31.75 53.125 31.75C53.4013 31.75 53.6662 31.8597 53.8616 32.0551C54.0569 32.2504 54.1667 32.5154 54.1667 32.7917V36.9583C54.1667 37.2346 54.0569 37.4996 53.8616 37.6949C53.6662 37.8903 53.4013 38 53.125 38C52.8487 38 52.5838 37.8903 52.3884 37.6949C52.1931 37.4996 52.0833 37.2346 52.0833 36.9583V32.7917Z" fill="#374B5A"/>
</g>
</g>
</g>
</svg>
