<svg width="157" height="158" viewBox="0 0 157 158" fill="none" xmlns="http://www.w3.org/2000/svg">
<rect x="1" y="1.53052" width="155" height="155" rx="77.5" stroke="#374B5A" stroke-opacity="0.35" stroke-width="2"/>
<g clip-path="url(#clip0_1_216)">
<path d="M56.3556 76.5044H94.6534V81.9755H56.3556V76.5044Z" fill="#374B5A"/>
<path d="M45.4133 98.3889H50.8844V103.86H45.4133V98.3889Z" fill="#374B5A"/>
<path d="M56.3556 98.3889H94.6534V103.86H56.3556V98.3889Z" fill="#374B5A"/>
<path d="M79.9908 60.0912C80.1541 59.0328 80.4866 58.0076 80.9756 57.0548L82.5075 54.6201H56.3556V60.0912H79.9908Z" fill="#374B5A"/>
<path d="M121.133 72.1275H116.538V87.4466H39.9422V71.0333H85.2977C83.498 70.1782 81.9934 68.807 80.9755 67.0941C80.6954 66.6046 80.4574 66.0921 80.2643 65.5622H39.9422V49.1488H85.6533L88.7992 43.6777H39.9422C38.4912 43.6777 37.0996 44.2542 36.0735 45.2802C35.0475 46.3062 34.4711 47.6978 34.4711 49.1488V109.331C34.4711 110.782 35.0475 112.174 36.0735 113.2C37.0996 114.226 38.4912 114.802 39.9422 114.802H116.538C117.989 114.802 119.38 114.226 120.406 113.2C121.432 112.174 122.009 110.782 122.009 109.331V72.0728L121.133 72.1275ZM39.9422 109.331V92.9177H116.538V109.331H39.9422Z" fill="#374B5A"/>
<path d="M102.45 33.1185L86.8023 60.0911C86.4383 60.6254 86.2293 61.2501 86.1985 61.8959C86.1678 62.5418 86.3164 63.1835 86.628 63.75C86.9396 64.3165 87.402 64.7857 87.9639 65.1056C88.5258 65.4255 89.1653 65.5835 89.8115 65.5622H121.134C121.78 65.5835 122.419 65.4255 122.981 65.1056C123.543 64.7857 124.005 64.3165 124.317 63.75C124.629 63.1835 124.777 62.5418 124.746 61.8959C124.716 61.2501 124.507 60.6254 124.143 60.0911L108.495 33.1185C108.187 32.5907 107.745 32.1529 107.215 31.8486C106.685 31.5444 106.084 31.3843 105.473 31.3843C104.861 31.3843 104.26 31.5444 103.73 31.8486C103.2 32.1529 102.758 32.5907 102.45 33.1185Z" fill="#374B5A"/>
</g>
<defs>
<clipPath id="clip0_1_216">
<rect width="98.48" height="98.48" fill="white" transform="translate(29 30)"/>
</clipPath>
</defs>
</svg>
