<svg width="157" height="158" viewBox="0 0 157 158" fill="none" xmlns="http://www.w3.org/2000/svg">
<rect x="1" y="1.62451" width="155" height="155" rx="77.5" stroke="#374B5A" stroke-opacity="0.35" stroke-width="2"/>
<path d="M41.31 38.2065C39.1335 38.2065 37.0461 39.0712 35.507 40.6102C33.968 42.1493 33.1033 44.2367 33.1033 46.4132V95.6532C33.1033 97.8298 33.968 99.9172 35.507 101.456C37.0461 102.995 39.1335 103.86 41.31 103.86H70.0333V112.067H61.8267V120.273H94.6533V112.067H86.4467V103.86H115.17C117.347 103.86 119.434 102.995 120.973 101.456C122.512 99.9172 123.377 97.8298 123.377 95.6532V46.4132C123.377 44.2367 122.512 42.1493 120.973 40.6102C119.434 39.0712 117.347 38.2065 115.17 38.2065M41.31 46.4132H115.17V95.6532H41.31M90.55 50.5165L76.1883 64.8782L90.55 79.2399L96.2947 73.4952L87.6777 64.8782L96.2947 56.2612M65.93 62.8265L60.1853 68.5712L68.8023 77.1882L60.1853 85.8052L65.93 91.5499L80.2917 77.1882" fill="#374B5A"/>
</svg>
